<svg width="628" height="98" viewBox="0 0 628 98" fill="none" xmlns="http://www.w3.org/2000/svg">
<path d="M91.8237 58.2056C90.769 58.3374 89.3408 58.5571 87.5391 58.8647C85.7812 59.1284 84.353 59.5239 83.2544 60.0513C81.936 60.7104 80.9912 61.6553 80.4199 62.8857C79.8926 64.0723 79.6289 65.4785 79.6289 67.1045V74.3555C79.6289 79.6289 79.6509 83.1885 79.6948 85.0342C79.7827 86.8799 79.8706 88.396 79.9585 89.5825C74.1138 92.2192 68.291 94.2407 62.4902 95.647C56.6895 97.0532 50.9985 97.7563 45.4175 97.7563C39.4409 97.7563 33.6841 96.6357 28.147 94.3945C22.6099 92.1533 17.7759 88.9673 13.645 84.8364C9.47021 80.6616 6.15234 75.5859 3.69141 69.6094C1.23047 63.6328 0 56.9531 0 49.5703C0 42.4512 1.16455 35.8594 3.49365 29.7949C5.8667 23.6865 9.20654 18.3911 13.5132 13.9087C17.688 9.51416 22.6538 6.1084 28.4106 3.69141C34.2114 1.23047 40.4077 0 46.9995 0C52.2729 0 56.8652 0.637207 60.7764 1.91162C64.6875 3.18604 68.1372 4.72412 71.1255 6.52588L73.8281 2.04346H79.1016L79.6948 34.7388H74.2896C73.3667 31.1353 72.2241 27.5977 70.8618 24.126C69.4995 20.6104 67.7417 17.4683 65.5884 14.6997C63.4351 11.9312 60.7983 9.73389 57.6782 8.10791C54.6021 6.43799 50.9106 5.60303 46.604 5.60303C41.9019 5.60303 37.7051 6.56982 34.0137 8.50342C30.3223 10.3931 27.1143 13.2275 24.3896 17.0068C21.709 20.6543 19.6436 25.2026 18.1934 30.6519C16.7432 36.1011 16.0181 42.1875 16.0181 48.9111C16.0181 54.8438 16.7212 60.4468 18.1274 65.7202C19.5776 70.9497 21.665 75.4761 24.3896 79.2993C27.1143 83.2104 30.52 86.2866 34.6069 88.5278C38.6938 90.769 43.3301 91.8896 48.5156 91.8896C52.3828 91.8896 55.8984 91.2964 59.0625 90.1099C62.2705 88.9233 64.5337 87.6709 65.8521 86.3525C66.2036 84.0674 66.3794 81.7603 66.3794 79.4312C66.4233 77.1021 66.4453 75.1245 66.4453 73.4985V68.3569C66.4453 66.5112 66.1816 64.8853 65.6543 63.479C65.1709 62.0288 64.1382 60.9741 62.5562 60.3149C61.106 59.6558 59.1284 59.1724 56.6235 58.8647C54.1626 58.5132 52.229 58.2935 50.8228 58.2056V53.3936H91.8237V58.2056ZM167.234 94.3945L146.074 95.8447L145.085 94.9219V86.6821H144.69C143.635 87.7808 142.449 88.9673 141.13 90.2417C139.812 91.4722 138.296 92.5928 136.582 93.6035C134.604 94.79 132.693 95.6909 130.847 96.3062C129.001 96.9214 126.387 97.229 123.003 97.229C117.246 97.229 112.852 95.3613 109.819 91.626C106.831 87.8467 105.337 82.3755 105.337 75.2124V44.0991C105.337 42.5171 105.029 41.1987 104.414 40.144C103.843 39.0454 102.986 38.1006 101.843 37.3096C101.052 36.7822 100.063 36.4087 98.877 36.189C97.6904 35.9253 96.438 35.7495 95.1196 35.6616V31.377L116.807 29.7949L117.795 30.7178V75.8716C117.795 80.5737 118.85 84.1113 120.959 86.4844C123.069 88.8574 125.596 90.0439 128.54 90.0439C130.957 90.0439 133.11 89.6704 135 88.9233C136.89 88.1763 138.472 87.2974 139.746 86.2866C140.933 85.3638 141.965 84.397 142.844 83.3862C143.767 82.3315 144.47 81.3647 144.954 80.4858V43.6377C144.954 42.1875 144.646 40.9131 144.031 39.8145C143.416 38.6719 142.559 37.7051 141.46 36.9141C140.669 36.3867 139.482 36.0791 137.9 35.9912C136.362 35.8594 134.626 35.7495 132.693 35.6616V31.377L156.292 29.7949L157.28 30.7178V82.3315C157.28 83.8257 157.588 85.1001 158.203 86.1548C158.818 87.2095 159.675 88.1104 160.774 88.8574C161.565 89.3408 162.51 89.6704 163.608 89.8462C164.707 89.978 165.916 90.0659 167.234 90.1099V94.3945ZM236.777 94.3945C234.712 95.1416 232.888 95.7349 231.306 96.1743C229.768 96.6577 228.01 96.8994 226.033 96.8994C222.605 96.8994 219.858 96.1084 217.793 94.5264C215.771 92.9004 214.475 90.5493 213.904 87.4731H213.508C210.652 90.6372 207.576 93.0542 204.28 94.7241C201.028 96.394 197.095 97.229 192.48 97.229C187.603 97.229 183.582 95.7349 180.417 92.7466C177.297 89.7583 175.737 85.8472 175.737 81.0132C175.737 78.5083 176.089 76.2671 176.792 74.2896C177.495 72.312 178.55 70.5322 179.956 68.9502C181.055 67.6318 182.505 66.4673 184.307 65.4565C186.108 64.4019 187.8 63.5669 189.382 62.9517C191.36 62.2046 195.359 60.8203 201.379 58.7988C207.444 56.7773 211.531 55.1953 213.64 54.0527V47.5269C213.64 46.9556 213.508 45.8569 213.245 44.231C213.025 42.605 212.52 41.0669 211.729 39.6167C210.85 37.9907 209.597 36.5845 207.971 35.3979C206.389 34.1675 204.126 33.5522 201.182 33.5522C199.16 33.5522 197.271 33.9038 195.513 34.6069C193.799 35.2661 192.59 35.9692 191.887 36.7163C191.887 37.5952 192.085 38.8916 192.48 40.6055C192.92 42.3193 193.14 43.9014 193.14 45.3516C193.14 46.8896 192.437 48.2959 191.03 49.5703C189.668 50.8447 187.756 51.4819 185.295 51.4819C183.098 51.4819 181.472 50.7129 180.417 49.1748C179.407 47.5928 178.901 45.835 178.901 43.9014C178.901 41.8799 179.604 39.9463 181.011 38.1006C182.461 36.2549 184.329 34.6069 186.614 33.1567C188.591 31.9263 190.986 30.8936 193.799 30.0586C196.611 29.1797 199.358 28.7402 202.039 28.7402C205.73 28.7402 208.938 29.0039 211.663 29.5312C214.431 30.0146 216.936 31.0913 219.177 32.7612C221.418 34.3872 223.11 36.6064 224.253 39.4189C225.439 42.1875 226.033 45.769 226.033 50.1636C226.033 56.4478 225.967 62.0288 225.835 66.9067C225.703 71.7407 225.637 77.0361 225.637 82.793C225.637 84.5068 225.923 85.8691 226.494 86.8799C227.109 87.8906 228.032 88.7476 229.263 89.4507C229.922 89.8462 230.955 90.0659 232.361 90.1099C233.811 90.1538 235.283 90.1758 236.777 90.1758V94.3945ZM213.772 59.5898C210.037 60.6885 206.763 61.7651 203.95 62.8198C201.138 63.8745 198.523 65.1929 196.106 66.7749C193.909 68.269 192.173 70.0488 190.898 72.1143C189.624 74.1357 188.987 76.5527 188.987 79.3652C188.987 83.0127 189.932 85.6934 191.821 87.4072C193.755 89.1211 196.194 89.978 199.138 89.978C202.258 89.978 205.005 89.231 207.378 87.7368C209.751 86.1987 211.75 84.397 213.376 82.3315L213.772 59.5898ZM307.441 34.6069C305.464 34.9585 303.574 35.6836 301.772 36.7822C300.015 37.8369 298.499 39.7266 297.224 42.4512C294.631 48.3398 291.951 54.4922 289.182 60.9082C286.414 67.2803 283.535 73.9819 280.547 81.0132C279.668 83.0347 278.723 85.4297 277.712 88.1982C276.746 90.9668 275.845 93.6255 275.01 96.1743H269.868C265.693 85.8472 261.848 76.4429 258.333 67.9614C254.817 59.436 251.169 50.7129 247.39 41.792C246.511 39.7705 245.083 38.2104 243.105 37.1118C241.172 35.9692 239.216 35.2441 237.239 34.9365V30.5859H267.297V35.2002C265.979 35.2441 264.331 35.5298 262.354 36.0571C260.376 36.5405 259.387 37.2217 259.387 38.1006C259.387 38.2324 259.497 38.584 259.717 39.1553C259.937 39.6826 260.156 40.2979 260.376 41.001C262.178 45.4834 264.727 51.7456 268.022 59.7876C271.318 67.8296 273.999 74.3115 276.064 79.2334C277.646 75.4541 279.624 70.752 281.997 65.127C284.414 59.502 287.007 53.2178 289.775 46.2744C290.215 45.0879 290.632 43.9893 291.028 42.9785C291.423 41.9238 291.621 40.8691 291.621 39.8145C291.621 39.0674 291.248 38.4082 290.5 37.8369C289.797 37.2217 288.94 36.6943 287.93 36.2549C286.919 35.8154 285.93 35.4858 284.963 35.2661C283.997 35.0464 283.206 34.8926 282.59 34.8047V30.5859H307.441V34.6069ZM371.909 94.3945C369.844 95.1416 368.02 95.7349 366.438 96.1743C364.9 96.6577 363.142 96.8994 361.165 96.8994C357.737 96.8994 354.99 96.1084 352.925 94.5264C350.903 92.9004 349.607 90.5493 349.036 87.4731H348.64C345.784 90.6372 342.708 93.0542 339.412 94.7241C336.16 96.394 332.227 97.229 327.612 97.229C322.734 97.229 318.713 95.7349 315.549 92.7466C312.429 89.7583 310.869 85.8472 310.869 81.0132C310.869 78.5083 311.221 76.2671 311.924 74.2896C312.627 72.312 313.682 70.5322 315.088 68.9502C316.187 67.6318 317.637 66.4673 319.438 65.4565C321.24 64.4019 322.932 63.5669 324.514 62.9517C326.492 62.2046 330.491 60.8203 336.511 58.7988C342.576 56.7773 346.663 55.1953 348.772 54.0527V47.5269C348.772 46.9556 348.64 45.8569 348.376 44.231C348.157 42.605 347.651 41.0669 346.86 39.6167C345.981 37.9907 344.729 36.5845 343.103 35.3979C341.521 34.1675 339.258 33.5522 336.313 33.5522C334.292 33.5522 332.402 33.9038 330.645 34.6069C328.931 35.2661 327.722 35.9692 327.019 36.7163C327.019 37.5952 327.217 38.8916 327.612 40.6055C328.052 42.3193 328.271 43.9014 328.271 45.3516C328.271 46.8896 327.568 48.2959 326.162 49.5703C324.8 50.8447 322.888 51.4819 320.427 51.4819C318.23 51.4819 316.604 50.7129 315.549 49.1748C314.539 47.5928 314.033 45.835 314.033 43.9014C314.033 41.8799 314.736 39.9463 316.143 38.1006C317.593 36.2549 319.46 34.6069 321.746 33.1567C323.723 31.9263 326.118 30.8936 328.931 30.0586C331.743 29.1797 334.49 28.7402 337.17 28.7402C340.862 28.7402 344.07 29.0039 346.794 29.5312C349.563 30.0146 352.068 31.0913 354.309 32.7612C356.55 34.3872 358.242 36.6064 359.385 39.4189C360.571 42.1875 361.165 45.769 361.165 50.1636C361.165 56.4478 361.099 62.0288 360.967 66.9067C360.835 71.7407 360.769 77.0361 360.769 82.793C360.769 84.5068 361.055 85.8691 361.626 86.8799C362.241 87.8906 363.164 88.7476 364.395 89.4507C365.054 89.8462 366.086 90.0659 367.493 90.1099C368.943 90.1538 370.415 90.1758 371.909 90.1758V94.3945ZM348.904 59.5898C345.168 60.6885 341.895 61.7651 339.082 62.8198C336.27 63.8745 333.655 65.1929 331.238 66.7749C329.041 68.269 327.305 70.0488 326.03 72.1143C324.756 74.1357 324.119 76.5527 324.119 79.3652C324.119 83.0127 325.063 85.6934 326.953 87.4072C328.887 89.1211 331.326 89.978 334.27 89.978C337.39 89.978 340.137 89.231 342.51 87.7368C344.883 86.1987 346.882 84.397 348.508 82.3315L348.904 59.5898ZM421.282 63.7427C423.083 65.3247 424.468 67.1484 425.435 69.2139C426.401 71.2793 426.885 73.8062 426.885 76.7944C426.885 82.8149 424.622 87.7368 420.095 91.5601C415.613 95.3833 409.79 97.2949 402.627 97.2949C398.848 97.2949 395.354 96.6138 392.146 95.2515C388.982 93.8892 386.719 92.6367 385.356 91.4941L384.038 95.7788H379.094L378.435 73.1689H382.983C383.335 74.8828 384.082 76.8823 385.225 79.1675C386.367 81.4526 387.751 83.5181 389.377 85.3638C391.091 87.2974 393.135 88.9233 395.508 90.2417C397.925 91.5601 400.627 92.2192 403.616 92.2192C407.834 92.2192 411.086 91.2744 413.372 89.3848C415.657 87.4512 416.799 84.7046 416.799 81.145C416.799 79.2993 416.426 77.7173 415.679 76.3989C414.976 75.0366 413.921 73.8501 412.515 72.8394C411.064 71.8286 409.285 70.9277 407.175 70.1367C405.066 69.3018 402.715 68.4888 400.122 67.6978C398.057 67.0825 395.75 66.2476 393.201 65.1929C390.696 64.0942 388.542 62.8198 386.741 61.3696C384.807 59.8315 383.225 57.9419 381.995 55.7007C380.764 53.4595 380.149 50.8228 380.149 47.7905C380.149 42.4731 382.126 37.9688 386.082 34.2773C390.037 30.5859 395.332 28.7402 401.968 28.7402C404.517 28.7402 407.109 29.0698 409.746 29.729C412.427 30.3882 414.602 31.1792 416.272 32.1021L417.788 28.6743H422.534L423.523 49.5703H418.975C418.052 44.9121 416.052 41.1328 412.976 38.2324C409.944 35.2881 406.23 33.8159 401.836 33.8159C398.232 33.8159 395.398 34.7168 393.333 36.5186C391.267 38.3203 390.234 40.4956 390.234 43.0444C390.234 45.022 390.564 46.6699 391.223 47.9883C391.926 49.3066 392.959 50.4272 394.321 51.3501C395.64 52.229 397.288 53.064 399.265 53.855C401.287 54.6021 403.77 55.459 406.714 56.4258C409.614 57.3486 412.339 58.4253 414.888 59.6558C417.48 60.8862 419.612 62.2485 421.282 63.7427ZM506.448 94.3945L485.288 95.8447L484.299 94.9219V86.6821H483.904C482.849 87.7808 481.663 88.9673 480.344 90.2417C479.026 91.4722 477.51 92.5928 475.796 93.6035C473.818 94.79 471.907 95.6909 470.061 96.3062C468.215 96.9214 465.601 97.229 462.217 97.229C456.46 97.229 452.065 95.3613 449.033 91.626C446.045 87.8467 444.551 82.3755 444.551 75.2124V44.0991C444.551 42.5171 444.243 41.1987 443.628 40.144C443.057 39.0454 442.2 38.1006 441.057 37.3096C440.266 36.7822 439.277 36.4087 438.091 36.189C436.904 35.9253 435.652 35.7495 434.333 35.6616V31.377L456.021 29.7949L457.009 30.7178V75.8716C457.009 80.5737 458.064 84.1113 460.173 86.4844C462.283 88.8574 464.81 90.0439 467.754 90.0439C470.171 90.0439 472.324 89.6704 474.214 88.9233C476.104 88.1763 477.686 87.2974 478.96 86.2866C480.146 85.3638 481.179 84.397 482.058 83.3862C482.981 82.3315 483.684 81.3647 484.167 80.4858V43.6377C484.167 42.1875 483.86 40.9131 483.245 39.8145C482.629 38.6719 481.772 37.7051 480.674 36.9141C479.883 36.3867 478.696 36.0791 477.114 35.9912C475.576 35.8594 473.84 35.7495 471.907 35.6616V31.377L495.505 29.7949L496.494 30.7178V82.3315C496.494 83.8257 496.802 85.1001 497.417 86.1548C498.032 87.2095 498.889 88.1104 499.988 88.8574C500.779 89.3408 501.724 89.6704 502.822 89.8462C503.921 89.978 505.129 90.0659 506.448 90.1099V94.3945ZM564.192 38.9575C564.192 41.1987 563.643 43.1982 562.544 44.9561C561.445 46.6699 559.753 47.5269 557.468 47.5269C555.007 47.5269 553.118 46.8896 551.799 45.6152C550.525 44.3408 549.888 42.9346 549.888 41.3965C549.888 40.4297 549.954 39.5508 550.085 38.7598C550.261 37.9688 550.415 37.1777 550.547 36.3867C548.481 36.3867 546.064 37.2217 543.296 38.8916C540.527 40.5615 538.176 42.9346 536.243 46.0107V83.8477C536.243 85.3857 536.528 86.6382 537.1 87.605C537.715 88.5718 538.66 89.2969 539.934 89.7803C541.033 90.2197 542.439 90.5493 544.153 90.769C545.911 90.9888 547.427 91.1426 548.701 91.2305V95.5811H514.424V91.2305C515.435 91.1426 516.467 91.0547 517.522 90.9668C518.621 90.8789 519.565 90.7031 520.356 90.4395C521.587 90.0439 522.488 89.3628 523.059 88.396C523.674 87.3853 523.982 86.0889 523.982 84.5068V44.3628C523.982 43.0005 523.652 41.6602 522.993 40.3418C522.378 39.0234 521.499 37.9688 520.356 37.1777C519.521 36.6504 518.533 36.2769 517.39 36.0571C516.248 35.7935 515.017 35.6177 513.699 35.5298V31.2451L535.32 29.7949L536.243 30.7178V39.8804H536.572C539.297 36.3208 542.329 33.6182 545.669 31.7725C549.009 29.9268 552.063 29.0039 554.832 29.0039C557.6 29.0039 559.841 29.9048 561.555 31.7065C563.313 33.5083 564.192 35.9253 564.192 38.9575ZM627.539 80.2881C624.814 85.4736 621.167 89.6045 616.597 92.6807C612.026 95.7568 606.775 97.2949 600.842 97.2949C595.613 97.2949 591.021 96.3721 587.065 94.5264C583.154 92.6807 579.924 90.1758 577.375 87.0117C574.827 83.8477 572.915 80.1562 571.641 75.9375C570.41 71.7188 569.795 67.2583 569.795 62.5562C569.795 58.3374 570.454 54.2065 571.772 50.1636C573.135 46.0767 575.112 42.4072 577.705 39.1553C580.21 36.0352 583.308 33.5303 587 31.6406C590.735 29.707 594.91 28.7402 599.524 28.7402C604.27 28.7402 608.335 29.4873 611.719 30.9814C615.103 32.4756 617.849 34.519 619.958 37.1118C621.98 39.5728 623.474 42.4731 624.441 45.813C625.452 49.1528 625.957 52.7783 625.957 56.6895V61.04H582.913C582.913 65.3027 583.308 69.1699 584.099 72.6416C584.934 76.1133 586.23 79.1675 587.988 81.8042C589.702 84.353 591.943 86.3745 594.712 87.8687C597.48 89.3188 600.776 90.0439 604.6 90.0439C608.511 90.0439 611.873 89.1431 614.685 87.3413C617.542 85.4956 620.288 82.1997 622.925 77.4536L627.539 80.2881ZM612.971 55.5029C612.971 53.042 612.751 50.4053 612.312 47.5928C611.917 44.7803 611.257 42.4292 610.334 40.5396C609.324 38.5181 607.939 36.8701 606.182 35.5957C604.424 34.3213 602.161 33.6841 599.392 33.6841C594.778 33.6841 590.933 35.6177 587.856 39.4849C584.824 43.3081 583.176 48.6475 582.913 55.5029H612.971Z" fill="white"/>
</svg>
