<svg xmlns="http://www.w3.org/2000/svg" viewBox="0 0 400 400" width="400" height="400">
  <defs>
    <linearGradient id="bg" x1="0%" y1="0%" x2="100%" y2="100%">
      <stop offset="0%" stop-color="#cb5e34"/>
      <stop offset="100%" stop-color="#a84420"/>
    </linearGradient>
  </defs>

  <circle cx="200" cy="200" r="190" fill="url(#bg)"/>

  <!-- Unified silhouette: leaf flowing into dog head profile (facing right) -->
  <path d="
    M115,278
    C92,258 85,222 96,190
    C108,158 135,145 158,152
    C165,135 180,115 205,102
    C230,90 258,92 275,105
    C290,116 298,135 298,155
    C298,168 292,178 286,183
    L300,195
    C308,210 310,225 300,235
    C292,242 280,238 272,230
    L260,222
    C245,228 230,232 218,230
    C200,226 185,215 175,200
    C168,192 158,182 152,170
    C142,185 130,215 124,240
    C118,260 116,272 115,278
    Z"
    fill="#fff5eb"/>

  <!-- Ear flop -->
  <path d="
    M212,106
    C220,82 248,74 265,86
    C278,95 282,115 274,128
    C266,138 250,130 238,118
    L222,110 Z"
    fill="#fff5eb"/>

  <!-- Leaf center vein -->
  <path d="M112,266 Q136,222 158,172"
        stroke="#b84e28" stroke-width="7" fill="none" stroke-linecap="round"/>

  <!-- Eye -->
  <circle cx="255" cy="140" r="6" fill="#b84e28"/>

  <!-- Nose at snout tip -->
  <path d="M296,182 C302,180 306,186 304,192 C302,197 296,198 292,194 C289,190 291,182 296,182 Z"
        fill="#b84e28"/>

  <!-- Mouth/jaw curve from below nose -->
  <path d="M298,202 Q282,228 262,228"
        stroke="#b84e28" stroke-width="5" fill="none" stroke-linecap="round"/>
</svg>