<svg xmlns="http://www.w3.org/2000/svg" viewBox="0 0 200 200" width="200" height="200">
  <defs>
    <linearGradient id="logoGrad" x1="0%" y1="0%" x2="100%" y2="100%">
      <stop offset="0%" style="stop-color:#944521"/>
      <stop offset="100%" style="stop-color:#b35c37"/>
    </linearGradient>
  </defs>
  <circle cx="100" cy="100" r="95" fill="url(#logoGrad)"/>
  <!-- Stylized pet heart/paw icon -->
  <g transform="translate(100,95) scale(1.1)" fill="#fff8f2">
    <!-- Heart shape -->
    <path d="M0-30 C-15-50 -45-40 -45-20 C-45 5 -15 25 0 40 C15 25 45 5 45-20 C45-40 15-50 0-30Z" opacity="0.95"/>
    <!-- Paw pads -->
    <ellipse cx="-22" cy="-55" rx="10" ry="12" transform="rotate(-15 -22 -55)"/>
    <ellipse cx="22" cy="-55" rx="10" ry="12" transform="rotate(15 22 -55)"/>
    <ellipse cx="-38" cy="-35" rx="9" ry="11" transform="rotate(-30 -38 -35)"/>
    <ellipse cx="38" cy="-35" rx="9" ry="11" transform="rotate(30 38 -35)"/>
  </g>
</svg>