<svg width="149" height="177" viewBox="0 0 149 177" fill="none" xmlns="http://www.w3.org/2000/svg">
<path d="M87.486 28.5893C93.7867 22.9762 98.5384 18.0908 103.909 14.0369C109.9 9.56726 116.098 4.99347 122.915 1.87511C130.765 -1.86692 135.929 0.108242 140.99 6.76074C142.643 8.94359 144.089 11.3341 145.432 13.8288C146.671 16.2196 147.498 18.8181 148.737 22.0404C138.615 39.3993 120.849 50.6258 111.243 68.1925C101.947 85.1356 91.6178 101.662 83.5612 119.229C75.4013 137.212 69.4106 156.338 61.9738 176.503C59.908 174.632 57.3254 173.281 56.4991 171.306C50.6116 157.793 47.5131 143.865 49.9921 128.896C52.1612 115.176 53.9172 101.559 59.3915 88.6694C61.4573 83.5761 62.9031 78.1712 63.7294 72.766C64.0393 70.5832 62.2837 68.0883 61.4573 65.8015C53.6073 66.9449 51.9544 72.4541 49.7853 77.3395C39.3531 100.623 28.4044 123.803 25.6156 149.79C24.8926 156.442 22.2071 162.886 19.9347 171.306C15.1834 168.707 11.1553 167.668 8.77962 164.965C1.65263 156.753 0 146.359 0 135.757C0 125.466 0.000100844 115.072 0.619839 104.781C0.826418 101.663 3.09879 98.6483 4.23498 95.5299C5.37116 92.5155 6.81691 89.3972 7.02349 86.2789C9.19258 54.9914 33.1561 21.3132 55.3633 11.0226C65.1759 6.44901 70.4435 7.07237 77.4672 14.8683C80.4626 18.0906 82.9413 22.2486 87.486 28.5893Z" fill="#F95736"/>
</svg>
