<svg width="162" height="195" viewBox="0 0 162 195" fill="none" xmlns="http://www.w3.org/2000/svg">
<path d="M67.2422 0C78.8106 1.03945 87.7969 6.13272 93.6844 14.7602C99.4686 23.1798 104.22 32.5349 107.938 42.0978C110.934 49.6858 112.586 57.8975 107.629 66.0053C105.873 68.8118 105.666 72.5539 105.046 75.9841C102.567 90.5365 97.5058 102.802 85.1111 112.781C74.7821 121.2 68.0686 134.089 59.0824 144.276C49.9929 154.567 40.4902 164.545 30.0579 173.381C26.5461 176.395 19.8322 176.083 14.5645 176.291C10.0197 176.499 7.23109 170.262 10.6396 167.248C24.9969 154.67 31.4005 136.584 41.7294 121.304C52.4715 105.504 60.7347 87.8337 68.0683 70.059C73.5426 56.5461 72.613 41.6822 70.1341 27.1298C68.5847 18.6063 65.7961 9.97875 67.2422 0Z" fill="#F95736"/>
<path d="M66.5186 194.378C66.7251 190.948 66.1055 188.453 67.1384 187.102C73.6456 178.266 79.7397 168.911 87.2799 161.011C112.173 134.921 124.051 103.218 128.079 68.0843C128.906 60.8081 127.046 53.0121 125.91 45.632C124.877 38.8756 123.018 32.3272 121.779 26.6102C125.497 22.0366 128.906 22.9722 132.005 24.5313C136.962 26.9221 141.92 29.4167 146.362 32.5351C156.174 39.6034 161.442 47.815 161.752 61.6398C162.268 78.3749 158.137 94.5903 159.376 111.118C159.686 115.483 157.93 121.616 154.831 124.423C147.291 131.491 143.263 141.054 136.549 148.538C122.708 163.922 104.943 174.42 89.6558 188.037C83.8716 193.234 76.5376 195.521 66.5186 194.378Z" fill="#F95736"/>
<path d="M3.40886 142.301C2.27267 142.405 1.13619 142.613 0 142.717C0 141.678 0.000201734 140.638 0.206781 139.703C0.206781 139.495 1.65294 139.287 1.85952 139.495C2.47925 140.326 2.89241 141.366 3.40886 142.301Z" fill="#F95736"/>
</svg>
